<?xml version="1.0" encoding="iso-8859-1"?>
<!-- Uploaded to: SVG Repo, www.svgrepo.com, Generator: SVG Repo Mixer Tools -->
<!DOCTYPE svg PUBLIC "-//W3C//DTD SVG 1.1//EN" "http://www.w3.org/Graphics/SVG/1.1/DTD/svg11.dtd">
<svg fill="#000000" height="800px" width="800px" version="1.1" id="Capa_1" xmlns="http://www.w3.org/2000/svg" xmlns:xlink="http://www.w3.org/1999/xlink" 
	 viewBox="0 0 214.31 214.31" xml:space="preserve">
	 <style>svg{fill:white}</style>
<path d="M175.71,140.276c-1.396-2.061-3.722-3.296-6.211-3.296H44.811c-2.489,0-4.815,1.235-6.211,3.296
	c-1.395,2.061-1.677,4.68-0.752,6.991l24.943,62.33c1.14,2.847,3.897,4.713,6.963,4.713h74.803c3.066,0,5.824-1.867,6.963-4.713
	l24.943-62.33C177.387,144.956,177.105,142.337,175.71,140.276z"/>
<path d="M161.421,54.411c-1.103-6.317-3.483-13.362-7.888-20.893C141.38,12.739,116.701,3.81,103.072,0.337
	C102.194,0.113,101.293,0,100.396,0c-3.453,0-6.713,1.691-8.723,4.524c-2.015,2.841-2.527,6.508-1.371,9.811
	c0.486,1.388,0.946,3.96,0.376,8.33c-0.551,4.227-3.483,6.114-11.104,10.053c-6.147,3.177-13.797,7.131-19.627,14.831
	c-0.984,1.299-1.99,2.96-2.92,4.908C35.447,62.051,21.61,77.801,21.61,95.948c0,10.379,4.615,20.382,13.347,28.928
	c1.402,1.372,3.285,2.14,5.246,2.14h133.904c1.961,0,3.844-0.768,5.246-2.14c8.731-8.545,13.347-18.548,13.347-28.928
	C192.7,78.988,180.618,64.116,161.421,54.411z"/>
</svg>